<svg width="321" height="75" xmlns="http://www.w3.org/2000/svg">
    <g fill="#660079" fill-rule="evenodd">
        <path d="M127.2 34H122c.1-2.2-.7-3-2.9-3-1.8 0-3.4 1-3.6 2.4-.1.7 0 1.5 1.5 2l5 1.4c3.4 1.1 4.6 3.1 4 6.6-.9 5-5.8 7.6-10.1 7.6-5.5 0-8.4-3-7.8-7.7h5.1c-.1 2.1 1.7 2.8 3.4 2.8 3.3 0 3.9-1.8 4-2.4.1-.8 0-1.6-3-2.4l-3.6-1c-3.2-1-4.5-3.2-4-6.5.7-3.7 4-7.5 10-7.5 6.2 0 7.7 4 7 7.7zM98.3 50.5L104 18h5.6l-5.7 32.4h-5.6zm-9 0L94.8 18h5.6l-5.7 32.4h-5.6zm-9.1 0L84.3 27H90l-4.1 23.4h-5.6zm-5.3 9l-5.8.6L73 38.7c.9-4.8-1.8-7.2-5.4-7.2-3.7 0-7.2 3.2-7.8 7.2-.7 4 1.5 7.4 5.2 7.4 1 0 2.9-.3 3.9-.8l-1 5.2c-1 .3-2.6.5-3.7.5-7.4 0-11.3-5.5-10.1-12.3a15.3 15.3 0 0 1 14.5-12.4c2.4 0 4.5 1 6.2 2.5l.3-1.7h5.7l-4.2 23.4-1.6 9zM52.5 34h-5c0-2.2-.8-3-3-3-1.8 0-3.3 1-3.6 2.4-.1.7 0 1.5 1.6 2l4.9 1.4c3.4 1.1 4.6 3.1 4 6.6-.9 5-5.7 7.6-10.1 7.6-5.5 0-8.4-3-7.7-7.7h5c0 2.1 1.7 2.8 3.4 2.8 3.3 0 4-1.8 4-2.4.2-.8 0-1.6-2.9-2.4l-3.7-1c-3.1-1-4.5-3.2-3.9-6.5.7-3.7 4-7.5 10-7.5 6.1 0 7.6 4 7 7.7zM85 20.5a4.2 4.2 0 0 1 3.8-2.8c2 0 3.3 1.8 2.6 3.9a4.2 4.2 0 0 1-3.8 2.8c-2.1 0-3.3-1.8-2.6-3.9zm-48.6-3c-9 1.3-17.1 6.6-20.1 14.4L0 74.3l123.5-13c9-1 16.6-6.7 19.7-15L161 0 36.4 17.5zM164 37c.5 0 .9 0 1.2-.3.4-.3.6-.6.8-1l.1-.1h.1l.7.2c.2 0 .2 0 .1.2a3.4 3.4 0 0 1-3.2 2.1c-.8 0-1.5-.2-2-.6-.4-.5-.7-1-.7-1.9v-.4a15.3 15.3 0 0 1 .4-3.8 3.4 3.4 0 0 1 3.4-2.7c1 0 1.6.3 2 .8.5.5.8 1.1.8 2a22 22 0 0 1-.3 2.3l-.1.1h-4.8-.1l-.1 1.4c0 .5.1 1 .4 1.3.3.3.8.4 1.3.4zm.8-7.1a2 2 0 0 0-1.3.4c-.4.3-.6.8-.8 1.3a17.5 17.5 0 0 0-.1 1.3h3.7v-.5l.1-.8c0-.5-.1-1-.4-1.3-.3-.3-.7-.4-1.2-.4zm3.7 8.1h-.2v-.2l3-4.3.1-.1-2-4.3c0-.2 0-.2.2-.2h1l.1.1 1.5 3.3h.1l2.3-3.3.3-.1h1c.1.1.1.1 0 .2l-3 4.3v.1l2 4.3c0 .2 0 .2-.2.2h-1l-.1-.1-1.5-3.3h-.1l-2.3 3.3-.3.1h-1zm11 .1c-.9 0-1.5-.2-2-.7-.5-.4-.8-1-.8-1.9a18 18 0 0 1 .5-4.1 3.4 3.4 0 0 1 3.4-2.7c.8 0 1.5.3 2 .7.5.5.8 1 .8 1.7V31.7h-1.1-.1v-.3c0-.4-.2-.8-.5-1-.3-.4-.7-.5-1.2-.5a2 2 0 0 0-1.3.5c-.4.3-.7.7-.8 1.2a20.7 20.7 0 0 0-.4 3.7c0 .5.1 1 .4 1.3.3.3.7.4 1.2.4s1-.1 1.3-.4c.4-.3.7-.7.8-1.1v-.2c0-.1.1-.2.2-.1h.9l.1.2v.3a3 3 0 0 1-1.2 1.8c-.7.4-1.4.6-2.2.6zm8.2-1a2.4 2.4 0 0 0 2-1.3l.1-.2h.2l.7.2v.2a3.4 3.4 0 0 1-3.2 2.1c-.8 0-1.5-.2-2-.6-.4-.5-.7-1-.7-1.9v-.4a15.3 15.3 0 0 1 .5-3.8 3.4 3.4 0 0 1 3.3-2.7c1 0 1.6.3 2 .8.5.5.8 1.1.8 2a22 22 0 0 1-.3 2.3l-.1.1h-4.8-.1l-.1 1.4c0 .5.1 1 .4 1.3.4.3.8.4 1.3.4zm.8-7.2a2 2 0 0 0-1.3.4c-.4.3-.6.8-.8 1.3a17.5 17.5 0 0 0-.1 1.3h3.7v-.1l.1-.4v-.8c0-.5-.1-1-.4-1.3-.3-.3-.7-.4-1.2-.4zm7.4 7.1c.5 0 .9 0 1.2-.3.4-.3.7-.6.9-1v-.1h.2l.7.2s.1 0 0 .2a3.4 3.4 0 0 1-3.2 2.1c-.8 0-1.4-.2-2-.6-.4-.5-.6-1-.7-1.9v-.4a15.3 15.3 0 0 1 .5-3.8 3.4 3.4 0 0 1 3.4-2.7c.8 0 1.5.3 2 .8s.7 1.1.7 2a22 22 0 0 1-.2 2.3l-.2.1h-4.8l-.2 1.4c0 .5.2 1 .5 1.3.3.3.7.4 1.2.4zm.8-7.1a2 2 0 0 0-1.3.4c-.4.3-.6.8-.7 1.3a17.5 17.5 0 0 0-.2 1.3h3.7v-.1l.1-.4v-.8c0-.5 0-1-.4-1.3-.3-.3-.7-.4-1.2-.4zm10.6-4.3c0-.1 0-.2.2-.2h.9l.1.2-1.5 12.2v.1l-.2.1h-.9c-.1 0-.2 0-.1-.2v-.7c-.6.7-1.3 1-2.2 1-.8 0-1.4-.2-1.8-.7-.4-.5-.6-1.3-.6-2.2a17.2 17.2 0 0 1 .5-3.8c.2-.9.6-1.5 1.2-2 .5-.4 1.1-.7 1.9-.7 1 0 1.5.4 1.9 1v.1l.6-4.2zm-1.4 9.9l.4-2a11 11 0 0 0 .1-2c0-.6-.2-1-.4-1.2-.3-.3-.6-.4-1-.4-.5 0-1 .1-1.3.4l-.7 1-.4 2.1a13.3 13.3 0 0 0-.1 2c0 .5.2 1 .4 1.2.3.3.7.4 1.1.4.5 0 .9-.1 1.2-.4.3-.3.6-.7.7-1.1zm5.6-8.2l-.6-.3a.8.8 0 0 1-.2-.6 1 1 0 0 1 1-1c.3 0 .5 0 .6.2.2.2.2.3.2.6s0 .5-.3.7a1 1 0 0 1-.7.4zM209.8 38c-.2 0-.2 0-.2-.2l1-8.7.3-.2h.9l.1.2-1 8.7-.1.1-.2.1h-.8zm8.1-9.2c.7 0 1.3.2 1.7.6.4.4.6 1 .6 1.8v.6l-.8 6v.1l-.2.1h-.9l-.1-.2.7-5.9v-.3c0-.6-.1-1-.4-1.3-.2-.3-.6-.4-1-.4-.6 0-1.1.2-1.5.5-.4.4-.6 1-.7 1.6l-.7 5.8v.1l-.2.1h-.9l-.1-.2 1-8.7.1-.2h1.1s.1 0 0 .2v.6c0 .1 0 .1 0 0l1-.7a3 3 0 0 1 1.3-.2zm9.7.3l.2-.2h1v.2l-1 8.6c-.3 2.8-2 4-4.8 4l-.1-.3v-.8l.3-.2c1 0 1.9-.1 2.4-.6.5-.4.8-1.1 1-2.1V37c-.6.6-1.3 1-2.2 1-.7 0-1.3-.3-1.8-.7-.4-.5-.7-1.1-.7-2a17.6 17.6 0 0 1 .6-4c.2-.9.5-1.5 1-2a3 3 0 0 1 2-.7c.5 0 .9.1 1.2.3l.8.7c0 .1 0 0 0 0l.1-.6zm-.8 6.1a48.5 48.5 0 0 0 .5-3.7c0-.5-.2-.9-.5-1.2-.2-.3-.6-.4-1.1-.4a2 2 0 0 0-1.3.5c-.4.3-.6.7-.8 1.2a18.7 18.7 0 0 0-.4 3.6c0 .5.1 1 .4 1.3.3.3.7.5 1.2.5s1-.2 1.3-.5c.4-.4.6-.8.7-1.3zm9.9 1.8c.4 0 .8 0 1.2-.3l.8-1 .1-.1h.1l.7.2c.1 0 .2 0 .1.2a3.4 3.4 0 0 1-3.2 2.1c-.8 0-1.5-.2-2-.6-.4-.5-.7-1-.7-1.9v-.4a15.3 15.3 0 0 1 .4-3.8 3.4 3.4 0 0 1 3.4-2.7c.9 0 1.6.3 2 .8.5.5.8 1.1.8 2a22 22 0 0 1-.3 2.3l-.1.1H235l-.1 1.4c0 .5.1 1 .4 1.3.3.3.8.4 1.3.4zm.8-7.1a2 2 0 0 0-1.3.4c-.4.3-.6.8-.8 1.3a17.5 17.5 0 0 0-.1 1.3h3.7v-.5l.1-.8c0-.5-.1-1-.4-1.3-.3-.3-.7-.4-1.2-.4zM241 38c-.1-.1-.1-.2 0-.2l3-4.3v-.1l-2-4.3c0-.2 0-.2.2-.2h1l.1.1 1.5 3.3h.1l2.3-3.3.3-.1h1v.2l-3 4.3v.1l2 4.3c0 .2 0 .2-.2.2h-1l-.1-.1-1.5-3.3h-.1l-2.3 3.3-.3.1h-1zm15.1-6.2v1.6l-.5 2.1c-.2.9-.6 1.5-1.1 2-.6.4-1.2.6-2 .6-.9 0-1.5-.3-1.8-1h-.1l-.5 4.2v.1H249l1.4-12.3.2-.2h1V29.8c.6-.7 1.3-1 2.3-1 .7 0 1.3.2 1.7.7.4.6.6 1.3.6 2.3zm-1.8 3.7l.5-2a13.3 13.3 0 0 0 0-2c0-.5-.1-1-.4-1.2-.2-.3-.6-.4-1.1-.4-.5 0-.8.1-1.2.4l-.7 1.1a11.4 11.4 0 0 0-.5 3.6v.5c0 .5.2.8.4 1.1.3.3.6.4 1.1.4.5 0 .9-.1 1.2-.4.3-.3.6-.6.7-1zM261 37c.4 0 .8 0 1.2-.3l.8-1v-.1h.2l.7.2.1.2a3.4 3.4 0 0 1-3.2 2.1c-.9 0-1.5-.2-2-.6-.5-.5-.7-1-.7-1.9v-.4a15.3 15.3 0 0 1 .4-3.8 3.4 3.4 0 0 1 3.4-2.7c.9 0 1.5.3 2 .8s.7 1.1.7 2a22 22 0 0 1-.2 2.3l-.2.1h-4.8l-.2 1.4c0 .5.2 1 .5 1.3.3.3.7.4 1.3.4zm.7-7.1a2 2 0 0 0-1.3.4c-.3.3-.6.8-.7 1.3a17.5 17.5 0 0 0-.2 1.3h3.7l.1-.1v-.4l.1-.8c0-.5-.1-1-.4-1.3-.3-.3-.7-.4-1.3-.4zM269 38c-.9 0-1.5-.2-2-.7-.5-.4-.7-1-.8-1.9a18 18 0 0 1 .5-4.1 3.4 3.4 0 0 1 3.5-2.7c.8 0 1.4.3 2 .7.4.5.7 1 .7 1.7V31.7h-1.1-.1v-.3c0-.4-.2-.8-.5-1-.3-.4-.7-.5-1.2-.5a2 2 0 0 0-1.3.5c-.4.3-.6.7-.8 1.2a20.7 20.7 0 0 0-.4 3.7c0 .5.1 1 .4 1.3.3.3.7.4 1.2.4s1-.1 1.4-.4c.3-.3.6-.7.7-1.1v-.2c0-.1.1-.2.2-.1h.9l.1.2v.3a3 3 0 0 1-1.2 1.8c-.6.4-1.4.6-2.2.6zm9.7-8.4l-.2.2h-1.7l-.7 5.5v.4c0 .4 0 .7.2.8.2.2.5.3 1 .3h.3c.1 0 .1.1 0 .1v.8c0 .1 0 .2-.2.2h-.5c-.7 0-1.2-.1-1.6-.4-.3-.2-.5-.7-.5-1.3v-.5l.7-5.8v-.1h-.9-.1V29v-.2h1.1l.3-2.1c0-.2.1-.2.2-.2h.9l.1.2-.2 2h1.7c.1 0 .2.2.1.3v.6zm6.7-.6l.2-.2h1v.2l-1 8.7v.1l-.2.1h-.9c-.1 0-.2 0-.1-.2v-.7c-.6.7-1.3 1-2.2 1-.8 0-1.4-.2-1.8-.7-.4-.5-.6-1.3-.6-2.2a17.2 17.2 0 0 1 .5-3.8c.2-.9.6-1.5 1.1-2 .6-.4 1.2-.7 2-.7 1 0 1.5.4 1.9 1.1l.1-.7zm-.9 6.4l.4-2a11 11 0 0 0 0-2c0-.6 0-1-.3-1.2-.3-.3-.6-.4-1-.4-.5 0-1 .1-1.3.4-.3.3-.6.6-.7 1l-.4 2.1a13.3 13.3 0 0 0-.1 2c0 .5.1 1 .4 1.2.3.3.6.4 1.1.4.5 0 .9-.1 1.2-.4l.7-1.1zm8.1-5.8c0 .1 0 .2-.2.2h-1.7l-.7 5.5v.4c0 .4 0 .7.3.8.2.2.5.3.9.3h.4v.9l-.3.2h-.5c-.7 0-1.2-.1-1.6-.4-.3-.2-.5-.7-.5-1.3v-.5l.8-5.8-.1-.1h-.9-.1V29l.1-.2h1.1l.2-2.1c0-.2.1-.2.2-.2h1v.2l-.2 2h1.7l.2.3-.1.6zm3-2.4l-.6-.3a.8.8 0 0 1-.2-.6 1 1 0 0 1 1-1c.3 0 .5 0 .6.2l.2.6c0 .3 0 .5-.3.7a1 1 0 0 1-.7.4zM293.7 38l-.1-.2 1-8.7c0-.1.1-.2.3-.2h.9l.1.2-1 8.7-.1.1-.2.1h-.9zm6.6.1c-.8 0-1.5-.2-2-.7-.5-.4-.7-1-.7-1.9a15.7 15.7 0 0 1 .5-4.1c.2-.8.6-1.5 1.2-2 .6-.4 1.3-.7 2.2-.7.8 0 1.5.3 2 .8.4.4.7 1 .7 1.9a15.2 15.2 0 0 1-.5 4.1 3.4 3.4 0 0 1-3.4 2.6zm.1-1c.5 0 1-.2 1.4-.5.4-.4.6-.8.7-1.3a22.5 22.5 0 0 0 .5-3.7c0-.5-.2-1-.5-1.3-.3-.3-.7-.4-1.2-.4a2 2 0 0 0-1.3.4c-.4.4-.7.8-.8 1.3a19.7 19.7 0 0 0-.4 3.7c0 .5.1 1 .4 1.3.3.3.7.4 1.2.4zm9.9-8.3c.7 0 1.3.2 1.7.6.4.4.6 1 .6 1.8v.6l-.8 6v.1l-.2.1h-.9l-.1-.2.7-5.9v-.3c0-.6-.1-1-.4-1.3-.3-.3-.6-.4-1.1-.4-.6 0-1 .2-1.4.5-.4.4-.6 1-.7 1.6l-.7 5.8v.1l-.2.1h-.9c-.1 0-.2 0-.1-.2l1-8.7.1-.2h1.1v.8c0 .1 0 .1 0 0l1-.7a3 3 0 0 1 1.3-.2zm6.5 9.3a3 3 0 0 1-2-.6c-.5-.4-.7-.9-.7-1.5v-.4c0-.2 0-.2.2-.2h1V35.7c0 .4 0 .7.3 1 .3.3.8.4 1.3.4s1-.2 1.3-.5c.4-.3.6-.7.6-1.1a1 1 0 0 0-.5-.9 7 7 0 0 0-1.3-.6 6 6 0 0 1-1.7-1c-.4-.2-.6-.7-.6-1.4 0-.8.3-1.5.9-2 .6-.5 1.3-.8 2.3-.8.8 0 1.4.2 1.9.6.5.4.7 1 .7 1.6v.3l-.1.2h-1l-.1-.1v-.1c0-.4 0-.8-.4-1-.2-.3-.6-.5-1.2-.5a2 2 0 0 0-1.3.5c-.4.3-.5.6-.5 1 0 .5.1.7.4 1l1.3.6c.5.2 1 .3 1.2.5.4.2.7.4.9.7.2.3.3.7.3 1.2v.3c0 .7-.4 1.3-1 1.8s-1.3.7-2.2.7z"/>
    </g>
</svg>